<svg width="60" height="60" viewBox="0 0 60 60" fill="none" xmlns="http://www.w3.org/2000/svg">
<path fill-rule="evenodd" clip-rule="evenodd" d="M20 50H16.6667C15.7467 50 15 49.2533 15 48.3333V46.6667C14.1167 46.6667 13.2683 46.315 12.6433 45.69C12.0183 45.065 11.6667 44.2167 11.6667 43.3333V30C10.7467 30 10 29.2533 10 28.3333V23.3333C10 22.4133 10.7467 21.6667 11.6667 21.6667V15C11.6667 12.2383 13.905 10 16.6667 10H43.3333C46.095 10 48.3333 12.2383 48.3333 15V21.6667C49.2533 21.6667 50 22.4133 50 23.3333V28.3333C50 29.2533 49.2533 30 48.3333 30V43.3333C48.3333 44.2167 47.9817 45.065 47.3567 45.69C46.7317 46.315 45.8833 46.6667 45 46.6667V48.3333C45 49.2533 44.2533 50 43.3333 50H40C39.08 50 38.3333 49.2533 38.3333 48.3333V46.6667H21.6667V48.3333C21.6667 49.2533 20.92 50 20 50ZM17.5 38.3333C18.88 38.3333 20 39.4533 20 40.8333C20 42.2133 18.88 43.3333 17.5 43.3333C16.12 43.3333 15 42.2133 15 40.8333C15 39.4533 16.12 38.3333 17.5 38.3333ZM42.5 38.3333C43.88 38.3333 45 39.4533 45 40.8333C45 42.2133 43.88 43.3333 42.5 43.3333C41.12 43.3333 40 42.2133 40 40.8333C40 39.4533 41.12 38.3333 42.5 38.3333ZM34.1667 40H25.8333C25.3733 40 25 40.3733 25 40.8333C25 41.2933 25.3733 41.6667 25.8333 41.6667H34.1667C34.6267 41.6667 35 41.2933 35 40.8333C35 40.3733 34.6267 40 34.1667 40ZM45 19.1667C45 18.7067 44.6267 18.3333 44.1667 18.3333H15.8333C15.3733 18.3333 15 18.7067 15 19.1667V33.3333C15 33.3333 20.1633 35 30 35C39.8367 35 45 33.3333 45 33.3333V19.1667ZM36.6667 13.3333H23.3333V15H36.6667V13.3333Z" fill="white"/>
</svg>
