<svg width="60" height="60" viewBox="0 0 60 60" fill="none" xmlns="http://www.w3.org/2000/svg">
<path d="M40.8629 8.0787H36.5121C36.2221 8.0787 35.9804 7.88533 35.932 7.59528C35.7387 6.67679 34.9168 6 33.95 6H26.2153C25.2485 6 24.4267 6.67679 24.2333 7.59528C24.185 7.88533 23.9432 8.0787 23.6532 8.0787H19.3024C16.8853 8.0787 15 10.0124 15 12.4295V41.6763C15 44.045 16.8853 46.0271 19.2541 46.0271L16.6436 49.8944C16.0152 50.8129 16.2569 52.0214 17.1754 52.6499C18.0939 53.2783 19.3024 53.0366 19.9309 52.1181L23.9432 46.0271H36.1254L40.2344 52.1181C40.8629 53.0366 42.0714 53.2783 42.9899 52.6499C43.9084 52.0214 44.1501 50.8129 43.5217 49.8944L40.9112 46.0271C43.28 45.9787 45.2137 44.045 45.2137 41.6763V12.4295C45.2137 10.0124 43.28 8.0787 40.8629 8.0787ZM26.9888 9.28725C26.9888 8.94885 27.2788 8.6588 27.6172 8.6588H32.4998C32.8381 8.6588 33.1282 8.94885 33.1282 9.28725V10.4958C33.1282 10.8342 32.8381 11.1242 32.4998 11.1242H27.6172C27.2788 11.1242 26.9888 10.8342 26.9888 10.4958V9.28725ZM24.0883 39.5976C24.0399 40.8545 23.0247 41.8697 21.7679 41.918C20.3176 42.0147 19.1091 40.8061 19.1574 39.3075C19.2057 38.0507 20.2209 37.0355 21.4778 36.9871C22.9281 36.9388 24.1366 38.1473 24.0883 39.5976ZM35.9804 39.3559C36.0287 38.099 37.0439 37.0838 38.3008 37.0355C39.751 36.9388 40.9596 38.1473 40.9112 39.6459C40.8629 40.9028 39.8477 41.918 38.5908 41.9663C37.0922 42.0147 35.8837 40.8061 35.9804 39.3559ZM42.5549 23.5964C42.5549 25.3367 41.1529 26.7387 39.461 26.7387H20.656C18.964 26.7387 17.5138 25.3367 17.5138 23.5964V17.602C17.5138 15.8617 18.964 14.4598 20.656 14.4598H39.461C41.1529 14.4598 42.5549 15.8617 42.5549 17.602V23.5964Z" fill="white"/>
</svg>
