<svg width="60" height="60" viewBox="0 0 60 60" fill="none" xmlns="http://www.w3.org/2000/svg">
<path d="M49.729 40.9395V20.3585C49.729 12.776 43.488 8 35.7905 8H23.9405C16.2425 8 10 12.776 10 20.3585V40.9395C10 44.7285 13.9295 47.8075 17.7785 47.8075C17.7785 47.8075 14.6705 52.924 14.6315 53H19.0035L22.3075 47.8075H37.4245L40.725 53H45.256C45.2165 52.9235 42.1075 47.8075 42.1075 47.8075C45.956 47.8075 49.729 44.7285 49.729 40.9395ZM18.714 42.184C16.826 42.184 15.294 40.6515 15.294 38.7625C15.294 36.877 16.8255 35.3445 18.714 35.3445C20.6025 35.3445 22.135 36.877 22.135 38.7625C22.135 40.6515 20.603 42.184 18.714 42.184ZM25.364 27.9765H14.564V17.1765H25.364V27.9765ZM41.0195 42.184C39.1305 42.184 37.5985 40.6515 37.5985 38.7625C37.5985 36.877 39.13 35.3445 41.0195 35.3445C42.908 35.3445 44.4385 36.877 44.4385 38.7625C44.438 40.6515 42.908 42.184 41.0195 42.184ZM45.1645 27.9765H34.364V17.1765H45.1645V27.9765Z" fill="white"/>
</svg>
